P1
21 50
00000000000000000000001111111111111111110000000000
00011111100000011111110101010101010101011000000000
00011111111111111111111010101010101010101100000000
00011111111111111111110101010101010101010100000000
00011111111111111111111010101010101010101100000000
00000000011111100000010101010101011101010100110000
00000000000000001100011010101010110010101101001000
00011111100000010010010101010101010001010110001000
00011111111111110011111010101010110000111100001000
00011111111111111000010101010101010000000000001000
00011111111111111110011010101010100000000000000100
00000000011111100001110101010101100001000000100100
00000000000000000000011010101010100011000101100100
00011111100000011111110101010101100000000000000100
00011111111111111111111010101010100001001001000100
00011111111111111111110101010101010001111111001000
00011111111111111111111010101010101000000000010000
00000000011111100001001111111111111111111111100000
00000000000000000001001010010000000100101001000000
00011111100000011111110001110000000011100111000000
00000000011111100000000000000000000000000000000000
