P1
17 18
000000000000000000
000000011111100010
000001110000011000
001111011111110110
011101111111111110
011001111111111110
101001111111111110
100011111100111110
111111100100011110
111111000000011110
011111000000111110
011111100011111110
001111111111111110
000111111111111110
000001111111111100
000000011111100110
000000000000000000
