P1
24 80
00000000000000000000000000000000000000000000000000000000000000000000000000000000
00000000000000000111111010001000011110001110010001001111011111000000000000000000
00000000000000000100000010001000010001010001010001010000010000000000000000000000
00000000000000000100000011001000010001010001010001010000010000000000000000000000
00000000000000000111110010101000011110011111010001001110011110000000000000000000
00000000000000000100000010011000010000010001010001000001010000000000000000000000
00000000000000000100000010001000010000010001010001000001010000000000000000000000
00000000000000000111111010001000010000010001001110011110011111000000000000000000
00000000000000000000000000000000000100100100000000000000000000000000000000000000
00000000000000000000000000000000001000101000000000000000000000000000000000000000
00000000000000000000000000000000001001001000000000000000000000000000000000000000
00000000000000000000000000000000000101000100000000000000000000000000000000000000
00000000000000000000000000000000000100100100000000000000000000000000000000000000
00000000000000000000000000000000000000000000000000000000000000000000000000000000
00000000000000000000000000000000011111111110000000000000000000000000000000000000
00000000000000000000000000000000010000000011100000000000000000000000000000000000
00000000000000000000000000000000010000000010100000000000000000000000000000000000
00000000000000000000000000000000010000000010100000000000000000000000000000000000
00000000000000000000000000000000010000000011100000000000000000000000000000000000
00000000000000000000000000000000001000000100000000000000000000000000000000000000
00000000000000000000000000000000111111111111000000000000000000000000000000000000
00000000000000000000000000000000100000000001000000000000000000000000000000000000
00000000000000000000000000000000011111111110000000000000000000000000000000000000
00000000000000000000000000000000000000000000000000000000000000000000000000000000
