P1
18 19
0000000000000000000
0000001111111000000
0000111111111110000
0001111111111111000
0011111111111111100
0011000011111111100
0110000011111111110
0110000011110011110
0100000011110011110
0100110011111111110
0100110001111111110
0100000000111111110
0010000000000001100
0011000000000011000
0001100000000110000
0000110000001100000
0000001111110000000
0000000000000000000
