P1
6 6
001100
011110
101101
001100
001100
011100
