P1
5 6 
00110
00100
00100
10101
01110
00100
