P1
6 5 
001000
010001
111111
010000
001000
