P1
# Chiffre 9
3 5 
111
101
111
001
111
