P1
6 6
001110
001100
001100
101101
011110
001100
