P1
7 23
00000001100000110000000
00000111111011111100000
00001111111111111110000
10011111111111111111001
11111111111011111111111
01111111110001111111110
00011111000000011111000
